# AST/ASF file generated using VICON BodyLanguage
# -----------------------------------------------
:version 1.10
:name VICON
:units
  mass 1.0
  length 0.45
  angle deg
:documentation
   .ast/.asf automatically generated from VICON data using
   VICON BodyBuilder and BodyLanguage model FoxedUp or BRILLIANT.MOD
:root
   order TX TY TZ RX RY RZ
   axis XYZ
   position 0 0 0  
   orientation 0 0 0 
:bonedata
  begin
     id 1 
     name lhipjoint
     direction 0.646657 -0.683706 0.338203 
     length 2.4948 
     axis 0 0 0  XYZ
  end
  begin
     id 2 
     name lfemur
     direction 0.34202 -0.939693 0  
     length 6.79491  
     axis 0 0 20  XYZ
    dof rx ry rz
    limits (-160.0 20.0)
           (-70.0 70.0)
           (-60.0 70.0)
  end
  begin
     id 3 
     name ltibia
     direction 0.34202 -0.939693 0   
     length 7.56807   
     axis 0 0 20   XYZ
    dof rx
    limits (-10.0 170.0)
  end
  begin
     id 4 
     name lfoot
     direction 0.0679796 -0.186772 0.980048   
     length 2.53018   
     axis -90 7.62852e-016 20   XYZ
    dof rx rz
    limits (-45.0 90.0)
           (-70.0 20.0)
  end
  begin
     id 5 
     name ltoes
     direction 1.53625e-011 -4.21881e-011 1   
     length 1.26912   
     axis -90 7.62852e-016 20   XYZ
    dof rx
    limits (-90.0 20.0)
  end
  begin
     id 6 
     name rhipjoint
     direction -0.618868 -0.704065 0.348274   
     length 2.42265  
     axis 0 0 0  XYZ 
  end
  begin
     id 7 
     name rfemur
     direction -0.34202 -0.939693 0   
     length 6.73814   
     axis 0 0 -20   XYZ
    dof rx ry rz
    limits (-160.0 20.0)
           (-70.0 70.0)
           (-70.0 60.0)
  end
  begin
     id 8 
     name rtibia
     direction -0.34202 -0.939693 0   
     length 7.66799   
     axis 0 0 -20   XYZ
    dof rx
    limits (-10.0 170.0)
 end
 begin
     id 9 
     name rfoot
     direction -0.0727352 -0.199838 0.977125   
     length 2.57224  
     axis -90 -7.62852e-016 -20   XYZ
    dof rx rz
    limits (-45.0 90.0)
           (-20.0 70.0)
  end
  begin
     id 10 
     name rtoes
     direction -1.53501e-011 -4.21858e-011 1   
     length 1.28858   
     axis -90 -7.62852e-016 -20   XYZ
    dof rx
    limits (-90.0 20.0)
  end
  begin
     id 11 
     name lowerback
     direction -0.0172471 0.995767 -0.0902851   
     length 2.20206   
     axis 0 0 0   XYZ
    dof rx ry rz
    limits (-20.0 45.0)
           (-30.0 30.0)
           (-30.0 30.0)
  end
  begin
     id 12 
     name upperback
     direction -0.000110737 0.999714 0.0239043   
     length 2.19523   
     axis 0 0 0   XYZ
    dof rx ry rz
    limits (-20.0 45.0)
           (-30.0 30.0)
           (-30.0 30.0)
  end
  begin
     id 13 
     name thorax
     direction 0.00704869 0.997783 0.0661741   
     length 2.21977   
     axis 0 0 0   XYZ
    dof rx ry rz
    limits (-20.0 45.0)
           (-30.0 30.0)
           (-30.0 30.0)
  end
  begin
     id 14 
     name lowerneck
     direction -0.00407501 0.995527 0.0943846   
     length 1.83142   
     axis 0 0 0   XYZ
    dof rx ry rz
    limits (-20.0 45.0)
           (-30.0 30.0)
           (-30.0 30.0)
  end
  begin
     id 15 
     name upperneck
     direction 0.0640586 0.986486 -0.150807   
     length 1.84616   
     axis 0 0 0   XYZ
    dof rx ry rz
    limits (-20.0 45.0)
           (-30.0 30.0)
           (-30.0 30.0)
  end
  begin
     id 16
     name head
     direction 0.0188017 0.99791 -0.0618239  
     length 1.85932  
     axis 0 0 0   XYZ
    dof rx ry rz
    limits (-20.0 45.0)
           (-30.0 30.0)
           (-30.0 30.0)
  end
  begin
     id 17 
     name lclavicle
     direction 0.976074 0.206905 0.066852  
     length 3.81043  
     axis 0 0 0   XYZ
    dof ry rz
    limits (-20.0 10.0)
           (0.0 20.0)
  end
  begin
     id 18 
     name lhumerus
     direction 1 -4.48971e-011 1.86916e-027   
     length 5.37587   
     axis 180 -30 -90   XYZ
    dof rx ry rz
    limits (-60.0 90.0)
           (-90.0 90.0)
           (-90.0 90.0)
  end
  begin
     id 19
     name lradius
     direction 1 -4.48968e-011 1.69187e-027   
     length 3.35977   
     axis 180 -30 -90   XYZ
    dof rx
    limits (-10.0 170.0)
  end
  begin
     id 20
     name lwrist
     direction 1 -4.48968e-011 5.8978e-027   
     length 1.67988   
     axis -3.27506e-015 90 90   XYZ
    dof ry
    limits (-180.0 0.0)
 end
  begin
     id 21 
     name lhand
     direction 1 -4.49028e-011 1.18071e-026   
     length 0.561859   
     axis -7.52654e-015 90 90   XYZ
    dof rx rz
    limits (-90.0 90.0)
           (-45.0 45.0)
  end
  begin
     id 22 
     name lfingers
     direction 1 -4.48927e-011 2.35758e-026   
     length 0.452985   
     axis -1.50534e-014 90 90   XYZ
    dof rx
    limits (0.0 90.0)
  end
  begin
     id 23
     name lthumb
     direction 0.707107 -6.34898e-011 0.707107   
     length 0.650399   
     axis -90 45 5.69224e-014   XYZ
    dof rx rz
    limits (-45.0 45.0)
           (-45.0 45.0)
  end
  begin
     id 24 
     name rclavicle
     direction -0.988403 0.151789 0.00439714   
     length 3.6942  
     axis 0 0 0   XYZ 
    dof ry rz
    limits (-10.0 20.0)
           (-20.0 0.0)
  end
  begin
     id 25 
     name rhumerus
     direction -1 -4.48978e-011 1.62495e-027  
     length 5.22819   
     axis 180 30 90   XYZ
    dof rx ry rz
    limits (-90.0 60.0)
           (-90.0 90.0)
           (-90.0 90.0)
  end
  begin
     id 26 
     name rradius
     direction -1 -4.48961e-011 3.47796e-027   
     length 3.40764   
     axis 180 30 90   XYZ
    dof rx
    limits (-10.0 170.0)
  end
  begin
     id 27 
     name rwrist
     direction -1 -4.48949e-011 5.89602e-027   
     length 1.70382   
     axis -3.27506e-015 -90 -90   XYZ
    dof ry
    limits (-180.0 0.0)
  end
  begin
     id 28
     name rhand
     direction -1 -4.48977e-011 1.17973e-026   
     length 0.583255   
     axis -7.52654e-015 -90 -90   XYZ
    dof rx rz
    limits (-90.0 90.0)
           (-45.0 45.0)
  end
  begin
     id 29
     name rfingers
     direction -1 -4.49099e-011 2.36408e-026   
     length 0.470235   
     axis -1.50534e-014 -90 -90   XYZ
    dof rx
    limits (0.0 90.0)
  end
  begin
     id 30
     name rthumb
     direction -0.707107 -6.35011e-011 0.707107   
     length 0.675167   
     axis -90 -45 -5.69224e-014   XYZ
    dof rx rz
    limits (-45.0 45.0)
           (-45.0 45.0)
  end
:hierarchy
  begin
    root lhipjoint rhipjoint lowerback
    lhipjoint lfemur
    lfemur ltibia
    ltibia lfoot
    lfoot ltoes
    rhipjoint rfemur
    rfemur rtibia
    rtibia rfoot
    rfoot rtoes
    lowerback upperback
    upperback thorax
    thorax lowerneck lclavicle rclavicle
    lowerneck upperneck
    upperneck head
    lclavicle lhumerus
    lhumerus lradius
    lradius lwrist
    lwrist lhand lthumb
    lhand lfingers
    rclavicle rhumerus
    rhumerus rradius
    rradius rwrist
    rwrist rhand rthumb
    rhand rfingers
  end

#!OML:ASF G:\JayActor3\Patient Classification 1\Patient 1\Session 2\male.ASF
:FULLY-SPECIFIED
:DEGREES
240
root 41.0165 15.532 -7.59128 3.24633 -81.4882 8.45631
lowerback 6.19532 -1.50353 -2.50545
upperback 4.06645 -2.27587 4.63253
thorax 1.02536 -1.3172 6.34349
lowerneck -11.4985 0.225549 3.3316
upperneck 0.0392992 -0.308371 1.75769
head 1.97972 -0.131106 -0.0311971
rclavicle -3.97569e-015 -1.98785e-014
rhumerus -36.3632 7.05668 -83.7156
rradius 31.8569
rwrist -12.9747
rhand -30.863 1.06503
rfingers 7.12502
rthumb -4.15082 -28.8743
lclavicle -3.97569e-015 -1.98785e-014
lhumerus -38.68 -32.4396 106.861
lradius 68.6703
lwrist 20.9839
lhand -30.5915 22.5341
lfingers 7.12502
lthumb -3.88871 52.4784
rfemur -32.1759 -2.48629 18.463
rtibia 66.177
rfoot -31.9008 -2.89828
rtoes -9.22393
lfemur -14.0177 3.49898 -21.1698
ltibia 59.6151
lfoot -10.0119 8.3377
ltoes -29.9297
241
root 40.855 15.5045 -7.60107 6.09039 -81.2856 5.44458
lowerback 6.55207 -1.31158 -1.88128
upperback 4.15819 -2.00027 4.71564
thorax 0.866077 -1.16965 6.07127
lowerneck -11.5346 0.0102226 3.25461
upperneck -0.476461 -0.59212 1.99177
head 1.81279 -0.280612 0.0426291
rclavicle 3.37934e-014 -3.97569e-015
rhumerus -34.2296 6.87853 -84.0799
rradius 32.0494
rwrist -12.6031
rhand -31.6998 1.29013
rfingers 7.12502
rthumb -4.95883 -28.6318
lclavicle 3.37934e-014 -3.97569e-015
lhumerus -39.4213 -30.6181 106.449
lradius 64.8194
lwrist 19.409
lhand -31.8651 23.5148
lfingers 7.12502
lthumb -5.11848 53.433
rfemur -31.1597 -2.21805 19.0304
rtibia 65.9623
rfoot -32.2092 -2.83923
rtoes -9.77675
lfemur -16.7145 3.42193 -20.5419
ltibia 63.9095
lfoot -9.1079 7.46118
ltoes -28.9302
242
root 40.6916 15.473 -7.60789 9.17341 -81.0379 2.17484
lowerback 6.89103 -1.12747 -1.16458
upperback 4.26614 -1.72801 4.81101
thorax 0.737285 -1.02429 5.75594
lowerneck -11.5421 -0.200525 3.16063
upperneck -1.02186 -0.863784 2.21497
head 1.63299 -0.426075 0.116956
rclavicle 1.59028e-014 2.06736e-014
rhumerus -32.1121 7.08671 -84.5671
rradius 32.511
rwrist -12.2727
rhand -32.1041 1.43393
rfingers 7.12502
rthumb -5.34926 -28.4786
lclavicle 1.59028e-014 2.06736e-014
lhumerus -40.1348 -29.0358 105.911
lradius 60.9587
lwrist 17.6097
lhand -32.6844 24.2717
lfingers 7.12502
lthumb -5.90953 54.1693
rfemur -30.1058 -2.00366 19.6705
rtibia 65.713
rfoot -32.5246 -2.75082
rtoes -10.2269
lfemur -19.4375 3.39734 -19.8677
ltibia 67.8842
lfoot -8.88239 6.4367
ltoes -28.4258
243
root 40.5256 15.4386 -7.61237 12.2286 -80.7216 -1.09969
lowerback 7.22445 -0.958482 -0.398381
upperback 4.39507 -1.4712 4.91955
thorax 0.64085 -0.887934 5.42482
lowerneck -11.5275 -0.401094 3.04081
upperneck -1.5993 -1.11548 2.43262
head 1.44102 -0.563402 0.195375
rclavicle -1.27222e-014 2.38542e-014
rhumerus -30.0125 7.72287 -85.133
rradius 33.2415
rwrist -12.0179
rhand -32.1448 1.52563
rfingers 7.12502
rthumb -5.38858 -28.3859
lclavicle -1.27222e-014 2.38542e-014
lhumerus -40.879 -27.7435 105.31
lradius 57.1776
lwrist 15.6593
lhand -32.9884 24.8848
lfingers 7.12502
lthumb -6.20297 54.774
rfemur -28.9689 -1.88495 20.3641
rtibia 65.3952
rfoot -32.88 -2.66532
rtoes -10.5618
lfemur -22.15 3.42177 -19.1867
ltibia 71.4622
lfoot -9.12304 5.4302
ltoes -28.349
244
root 40.3568 15.4022 -7.61574 14.9435 -80.3342 -4.0662
lowerback 7.56936 -0.80808 0.355646
upperback 4.53997 -1.23703 5.03754
thorax 0.564241 -0.764527 5.11092
lowerneck -11.513 -0.588542 2.90201
upperneck -2.18718 -1.34575 2.63882
head 1.24801 -0.691196 0.274733
rclavicle -1.59028e-014 -4.77083e-014
rhumerus -27.9256 8.78415 -85.7237
rradius 34.228
rwrist -11.8764
rhand -31.8729 1.54346
rfingers 7.12502
rthumb -5.12599 -28.3745
lclavicle -1.59028e-014 -4.77083e-014
lhumerus -41.7344 -26.7767 104.711
lradius 53.5936
lwrist 13.7166
lhand -32.7638 25.2883
lfingers 7.12502
lthumb -5.98619 55.1837
rfemur -27.7313 -1.8846 21.0755
rtibia 64.9807
rfoot -33.3074 -2.57508
rtoes -10.6211
lfemur -24.8448 3.49024 -18.5562
ltibia 74.5957
lfoot -9.6292 4.57208
ltoes -28.4818
245
root 40.1844 15.3655 -7.61921 16.9262 -79.8756 -6.3234
lowerback 7.91973 -0.68182 1.01368
upperback 4.69699 -1.03729 5.15415
thorax 0.507926 -0.660689 4.85167
lowerneck -11.5177 -0.761645 2.74974
upperneck -2.76569 -1.55517 2.83129
head 1.06352 -0.808979 0.35313
rclavicle -1.51076e-014 -4.92986e-014
rhumerus -25.8328 10.2242 -86.2763
rradius 35.4178
rwrist -11.8559
rhand -31.2961 1.47463
rfingers 7.12502
rthumb -4.56905 -28.4561
lclavicle -1.51076e-014 -4.92986e-014
lhumerus -42.774 -26.1699 104.184
lradius 50.3242
lwrist 12.007
lhand -32.0806 25.4773
lfingers 7.12502
lthumb -5.32659 55.3904
rfemur -26.3711 -2.03387 21.7373
rtibia 64.4381
rfoot -33.814 -2.57265
rtoes -10.7009
lfemur -27.5039 3.57501 -18.0635
ltibia 77.2418
lfoot -10.2224 3.96213
ltoes -28.4433
246
root 40.0067 15.3298 -7.62373 18.0918 -79.3805 -7.7705
lowerback 8.26255 -0.571316 1.52204
upperback 4.85686 -0.864317 5.26296
thorax 0.467309 -0.572762 4.67033
lowerneck -11.5471 -0.921889 2.60272
upperneck -3.31759 -1.74864 3.00047
head 0.893436 -0.918759 0.424076
rclavicle 4.41302e-014 -9.54166e-015
rhumerus -23.7222 11.9695 -86.7351
rradius 36.7707
rwrist -11.9532
rhand -30.4527 1.22954
rfingers 7.12502
rthumb -3.75461 -28.7171
lclavicle 4.41302e-014 -9.54166e-015
lhumerus -44.0836 -25.9482 103.805
lradius 47.4896
lwrist 10.7815
lhand -31.0847 25.49
lfingers 7.12502
lthumb -4.36493 55.425
rfemur -24.8833 -2.30698 22.3124
rtibia 63.7374
rfoot -34.4257 -2.59905
rtoes -10.5669
lfemur -30.1134 3.67189 -17.7597
ltibia 79.3764
lfoot -10.8534 3.65923
ltoes -28.4423
247
root 39.8222 15.2977 -7.62983 18.4818 -78.8641 -8.40867
lowerback 8.57 -0.472671 1.84566
upperback 4.99716 -0.715314 5.36116
thorax 0.432238 -0.499072 4.58328
lowerneck -11.6002 -1.06894 2.47268
upperneck -3.82569 -1.92747 3.14354
head 0.742464 -1.02063 0.484605
rclavicle 3.18055e-015 6.04305e-014
rhumerus -21.6197 13.9711 -87.0643
rradius 38.2413
rwrist -12.1036
rhand -29.4889 0.920461
rfingers 7.12502
rthumb -2.82391 -29.0406
lclavicle 3.18055e-015 6.04305e-014
lhumerus -45.7311 -26.0991 103.636
lradius 45.1569
lwrist 10.2312
lhand -29.8496 25.3217
lfingers 7.12502
lthumb -3.17221 55.2779
rfemur -23.2912 -2.67269 22.7751
rtibia 62.8487
rfoot -35.1089 -2.69644
rtoes -10.4103
lfemur -32.6853 3.76162 -17.6773
ltibia 80.981
lfoot -11.5165 3.61205
ltoes -28.3697
248
root 39.6303 15.2716 -7.63744 18.3521 -78.3452 -8.45662
lowerback 8.82601 -0.372331 1.99122
upperback 5.09543 -0.571984 5.45522
thorax 0.384875 -0.429897 4.59204
lowerneck -11.6735 -1.20814 2.3665
upperneck -4.28079 -2.09964 3.26358
head 0.612374 -1.11819 0.534174
rclavicle -2.54444e-014 3.97569e-014
rhumerus -19.5659 16.1693 -87.2259
rradius 39.8341
rwrist -12.3103
rhand -28.4542 0.598528
rfingers 7.12502
rthumb -1.82454 -29.3734
lclavicle -2.54444e-014 3.97569e-014
lhumerus -47.7601 -26.5987 103.74
lradius 43.372
lwrist 10.4172
lhand -28.4365 25.1077
lfingers 7.12502
lthumb -1.80753 55.0798
rfemur -21.597 -3.0644 23.1423
rtibia 61.6478
rfoot -35.7645 -2.84584
rtoes -10.1203
lfemur -35.2302 3.84729 -17.7996
ltibia 81.9907
lfoot -12.1065 3.72914
ltoes -28.235
249
root 39.4297 15.2533 -7.64552 17.9402 -77.8241 -8.13441
lowerback 9.01645 -0.264947 1.9946
upperback 5.13571 -0.425083 5.54912
thorax 0.313927 -0.359597 4.67962
lowerneck -11.7444 -1.34672 2.28197
upperneck -4.69206 -2.27331 3.37521
head 0.496304 -1.21556 0.577544
rclavicle -6.04305e-014 1.90833e-014
rhumerus -17.6223 18.4951 -87.1995
rradius 41.5766
rwrist -12.5314
rhand -27.477 0.38176
rfingers 7.12502
rthumb -0.880741 -29.5962
lclavicle -6.04305e-014 1.90833e-014
lhumerus -50.1948 -27.3815 104.151
lradius 42.1399
lwrist 11.2147
lhand -26.8381 24.9653
lfingers 7.12502
lthumb -0.263739 54.9449
rfemur -19.849 -3.43243 23.4398
rtibia 60.226
rfoot -36.3991 -3.00856
rtoes -9.74485
lfemur -37.7352 3.91711 -18.0958
ltibia 82.4674
lfoot -12.6657 3.94122
ltoes -28.1962
250
root 39.2059 15.29 -7.65018 17.5736 -77.3182 -7.74929
lowerback 9.15242 -0.139219 1.92797
upperback 5.10109 -0.253184 5.64486
thorax 0.192714 -0.275604 4.80565
lowerneck -11.8039 -1.49266 2.21494
upperneck -5.0652 -2.45804 3.50213
head 0.391254 -1.31738 0.622481
rclavicle -2.14687e-014 -2.06736e-014
rhumerus -15.837 20.8717 -86.9861
rradius 43.4949
rwrist -12.7735
rhand -26.6669 0.435977
rfingers 7.12502
rthumb -0.0983398 -29.5437
lclavicle -2.14687e-014 -2.06736e-014
lhumerus -53.0198 -28.3689 104.865
lradius 41.429
lwrist 12.3662
lhand -25.0808 24.9552
lfingers 7.12502
lthumb 1.43349 54.9301
rfemur -17.9071 -3.70839 23.716
rtibia 58.386
rfoot -36.9204 -3.18083
rtoes -9.31839
lfemur -39.8809 3.99431 -18.4956
ltibia 82.1256
lfoot -13.2107 4.14742
ltoes -28.2398
251
root 38.9936 15.2876 -7.65527 17.4169 -76.8278 -7.48966
lowerback 9.24878 0.00710363 1.85379
upperback 4.99909 -0.0493283 5.74269
thorax 0.0196273 -0.173435 4.93431
lowerneck -11.8377 -1.65445 2.14902
upperneck -5.41902 -2.66189 3.67714
head 0.289733 -1.42781 0.68181
rclavicle 1.43125e-014 -3.49861e-014
rhumerus -14.2505 23.2319 -86.5962
rradius 45.6149
rwrist -13.0225
rhand -26.0596 0.737734
rfingers 7.12502
rthumb 0.48814 -29.2415
lclavicle 1.43125e-014 -3.49861e-014
lhumerus -56.1957 -29.4748 105.853
lradius 41.2005
lwrist 13.5289
lhand -23.164 25.1382
lfingers 7.12502
lthumb 3.28468 55.0926
rfemur -16.1842 -3.86093 24.0236
rtibia 56.5914
rfoot -37.3002 -3.3589
rtoes -8.90497
lfemur -42.2751 4.06347 -18.9602
ltibia 81.6238
lfoot -13.7058 4.31457
ltoes -28.3555
